<?xml version="1.0" encoding="UTF-8"?>
<!DOCTYPE svg PUBLIC "-//W3C//DTD SVG 1.1//EN" "http://www.w3.org/Graphics/SVG/1.1/DTD/svg11.dtd">
<svg version="1.1" xmlns="http://www.w3.org/2000/svg" xmlns:xlink="http://www.w3.org/1999/xlink" x="0" y="0" width="932" height="808" viewBox="0, 0, 932, 808">
  <g id="Abutment">
    <g>
      <path d="M804.056,430.069 L790.291,572.481 L887.839,572.481 L887.226,506.489 L861.299,506.083 L853.91,430.069 L804.056,430.069 z" fill="#B1B1B1"/>
      <path d="M804.056,430.069 L790.291,572.481 L887.839,572.481 L887.226,506.489 L861.299,506.083 L853.91,430.069 L804.056,430.069 z" fill-opacity="0" stroke="#000000" stroke-width="1"/>
    </g>
  </g>
  <g id="Wheel">
    <g>
      <path d="M443.5,757.5 C245.23,757.5 84.5,596.77 84.5,398.5 C84.5,200.23 245.23,39.5 443.5,39.5 C641.77,39.5 802.5,200.23 802.5,398.5 C802.5,596.77 641.77,757.5 443.5,757.5 z" fill="#BABABA"/>
      <path d="M443.5,757.5 C245.23,757.5 84.5,596.77 84.5,398.5 C84.5,200.23 245.23,39.5 443.5,39.5 C641.77,39.5 802.5,200.23 802.5,398.5 C802.5,596.77 641.77,757.5 443.5,757.5 z" fill-opacity="0" stroke="#000000" stroke-width="1"/>
    </g>
    <g>
      <path d="M443.5,616 C323.378,616 226,518.622 226,398.5 C226,278.378 323.378,181 443.5,181 C563.622,181 661,278.378 661,398.5 C661,518.622 563.622,616 443.5,616 z" fill="#FFFFFF"/>
      <path d="M443.5,616 C323.378,616 226,518.622 226,398.5 C226,278.378 323.378,181 443.5,181 C563.622,181 661,278.378 661,398.5 C661,518.622 563.622,616 443.5,616 z" fill-opacity="0" stroke="#000000" stroke-width="1"/>
    </g>
    <g>
      <path d="M443.5,5.5 C660.548,5.5 836.5,181.452 836.5,398.5 C836.5,615.548 660.548,791.5 443.5,791.5 C226.452,791.5 50.5,615.548 50.5,398.5 C50.5,181.452 226.452,5.5 443.5,5.5 z M443.5,39.5 C245.23,39.5 84.5,200.23 84.5,398.5 C84.5,596.77 245.23,757.5 443.5,757.5 C641.77,757.5 802.5,596.77 802.5,398.5 C802.5,200.23 641.77,39.5 443.5,39.5 z" fill="#0074FF" fill-opacity="0.385"/>
      <path d="M443.5,5.5 C660.548,5.5 836.5,181.452 836.5,398.5 C836.5,615.548 660.548,791.5 443.5,791.5 C226.452,791.5 50.5,615.548 50.5,398.5 C50.5,181.452 226.452,5.5 443.5,5.5 z M443.5,39.5 C245.23,39.5 84.5,200.23 84.5,398.5 C84.5,596.77 245.23,757.5 443.5,757.5 C641.77,757.5 802.5,596.77 802.5,398.5 C802.5,200.23 641.77,39.5 443.5,39.5 z" fill-opacity="0" stroke="#000000" stroke-width="1"/>
    </g>
    <g>
      <path d="M241,637 C222.222,637 207,621.778 207,603 C207,584.222 222.222,569 241,569 C259.778,569 275,584.222 275,603 C275,621.778 259.778,637 241,637 z" fill="#FFFFFF"/>
      <path d="M241,637 C222.222,637 207,621.778 207,603 C207,584.222 222.222,569 241,569 C259.778,569 275,584.222 275,603 C275,621.778 259.778,637 241,637 z" fill-opacity="0" stroke="#000000" stroke-width="1"/>
    </g>
    <g>
      <path d="M648,637 C629.222,637 614,621.778 614,603 C614,584.222 629.222,569 648,569 C666.778,569 682,584.222 682,603 C682,621.778 666.778,637 648,637 z" fill="#FFFFFF"/>
      <path d="M648,637 C629.222,637 614,621.778 614,603 C614,584.222 629.222,569 648,569 C666.778,569 682,584.222 682,603 C682,621.778 666.778,637 648,637 z" fill-opacity="0" stroke="#000000" stroke-width="1"/>
    </g>
    <g>
      <path d="M648,230 C629.222,230 614,214.778 614,196 C614,177.222 629.222,162 648,162 C666.778,162 682,177.222 682,196 C682,214.778 666.778,230 648,230 z" fill="#FFFFFF"/>
      <path d="M648,230 C629.222,230 614,214.778 614,196 C614,177.222 629.222,162 648,162 C666.778,162 682,177.222 682,196 C682,214.778 666.778,230 648,230 z" fill-opacity="0" stroke="#000000" stroke-width="1"/>
    </g>
    <g>
      <path d="M241,230 C222.222,230 207,214.778 207,196 C207,177.222 222.222,162 241,162 C259.778,162 275,177.222 275,196 C275,214.778 259.778,230 241,230 z" fill="#FFFFFF"/>
      <path d="M241,230 C222.222,230 207,214.778 207,196 C207,177.222 222.222,162 241,162 C259.778,162 275,177.222 275,196 C275,214.778 259.778,230 241,230 z" fill-opacity="0" stroke="#000000" stroke-width="1"/>
    </g>
    <g>
      <path d="M443.5,146 C424.722,146 409.5,130.778 409.5,112 C409.5,93.222 424.722,78 443.5,78 C462.278,78 477.5,93.222 477.5,112 C477.5,130.778 462.278,146 443.5,146 z" fill="#FFFFFF"/>
      <path d="M443.5,146 C424.722,146 409.5,130.778 409.5,112 C409.5,93.222 424.722,78 443.5,78 C462.278,78 477.5,93.222 477.5,112 C477.5,130.778 462.278,146 443.5,146 z" fill-opacity="0" stroke="#000000" stroke-width="1"/>
    </g>
    <g>
      <path d="M443.5,721 C424.722,721 409.5,705.778 409.5,687 C409.5,668.222 424.722,653 443.5,653 C462.278,653 477.5,668.222 477.5,687 C477.5,705.778 462.278,721 443.5,721 z" fill="#FFFFFF"/>
      <path d="M443.5,721 C424.722,721 409.5,705.778 409.5,687 C409.5,668.222 424.722,653 443.5,653 C462.278,653 477.5,668.222 477.5,687 C477.5,705.778 462.278,721 443.5,721 z" fill-opacity="0" stroke="#000000" stroke-width="1"/>
    </g>
    <g>
      <path d="M731,432.5 C712.222,432.5 697,417.278 697,398.5 C697,379.722 712.222,364.5 731,364.5 C749.778,364.5 765,379.722 765,398.5 C765,417.278 749.778,432.5 731,432.5 z" fill="#FFFFFF"/>
      <path d="M731,432.5 C712.222,432.5 697,417.278 697,398.5 C697,379.722 712.222,364.5 731,364.5 C749.778,364.5 765,379.722 765,398.5 C765,417.278 749.778,432.5 731,432.5 z" fill-opacity="0" stroke="#000000" stroke-width="1"/>
    </g>
    <g>
      <path d="M158,432.5 C139.222,432.5 124,417.278 124,398.5 C124,379.722 139.222,364.5 158,364.5 C176.778,364.5 192,379.722 192,398.5 C192,417.278 176.778,432.5 158,432.5 z" fill="#FFFFFF"/>
      <path d="M158,432.5 C139.222,432.5 124,417.278 124,398.5 C124,379.722 139.222,364.5 158,364.5 C176.778,364.5 192,379.722 192,398.5 C192,417.278 176.778,432.5 158,432.5 z" fill-opacity="0" stroke="#000000" stroke-width="1"/>
    </g>
  </g>
  <g id="Shoe">
    <g>
      <path d="M700.278,96.338 C700.201,96.27 738.328,51.526 738.328,51.526 L835.407,167.131 L784.433,196.465 C784.433,196.465 759.668,149.098 700.278,96.338 z" fill="#D9DCC4"/>
      <path d="M700.278,96.338 C700.201,96.27 738.328,51.526 738.328,51.526 L835.407,167.131 L784.433,196.465 C784.433,196.465 759.668,149.098 700.278,96.338 z" fill-opacity="0" stroke="#000000" stroke-width="1"/>
    </g>
    <g>
      <path d="M784.433,196.465 C783.899,195.597 837.222,166.079 837.222,166.079 L879.564,283.1 L879.965,324.393 L834.402,334.724 C834.402,334.724 824.045,260.773 784.433,196.465 z" fill="#D9DCC4"/>
      <path d="M784.433,196.465 C783.899,195.597 837.222,166.079 837.222,166.079 L879.564,283.1 L879.965,324.393 L834.402,334.724 C834.402,334.724 824.045,260.773 784.433,196.465 z" fill-opacity="0" stroke="#000000" stroke-width="1"/>
    </g>
    <g>
      <path d="M834.402,334.724 C834.485,334.965 899.51,320.906 899.51,320.906 L899.158,506.489 L823.941,505.786 C823.941,505.786 850.653,431.272 834.402,334.724 z" fill="#D9DCC4"/>
      <path d="M834.402,334.724 C834.485,334.965 899.51,320.906 899.51,320.906 L899.158,506.489 L823.941,505.786 C823.941,505.786 850.653,431.272 834.402,334.724 z" fill-opacity="0" stroke="#000000" stroke-width="1"/>
    </g>
    <g>
      <path d="M853.722,352.577 C850.961,352.577 848.722,350.339 848.722,347.577 C848.722,344.816 850.961,342.577 853.722,342.577 C856.484,342.577 858.722,344.816 858.722,347.577 C858.722,350.339 856.484,352.577 853.722,352.577 z" fill="#FFFFFF"/>
      <path d="M853.722,352.577 C850.961,352.577 848.722,350.339 848.722,347.577 C848.722,344.816 850.961,342.577 853.722,342.577 C856.484,342.577 858.722,344.816 858.722,347.577 C858.722,350.339 856.484,352.577 853.722,352.577 z" fill-opacity="0" stroke="#000000" stroke-width="1"/>
    </g>
    <g>
      <path d="M853.722,413.309 C850.961,413.309 848.722,411.07 848.722,408.309 C848.722,405.548 850.961,403.309 853.722,403.309 C856.484,403.309 858.722,405.548 858.722,408.309 C858.722,411.07 856.484,413.309 853.722,413.309 z" fill="#FFFFFF"/>
      <path d="M853.722,413.309 C850.961,413.309 848.722,411.07 848.722,408.309 C848.722,405.548 850.961,403.309 853.722,403.309 C856.484,403.309 858.722,405.548 858.722,408.309 C858.722,411.07 856.484,413.309 853.722,413.309 z" fill-opacity="0" stroke="#000000" stroke-width="1"/>
    </g>
    <g>
      <path d="M853.722,474.003 C850.961,474.003 848.722,471.764 848.722,469.003 C848.722,466.241 850.961,464.003 853.722,464.003 C856.484,464.003 858.722,466.241 858.722,469.003 C858.722,471.764 856.484,474.003 853.722,474.003 z" fill="#FFFFFF"/>
      <path d="M853.722,474.003 C850.961,474.003 848.722,471.764 848.722,469.003 C848.722,466.241 850.961,464.003 853.722,464.003 C856.484,464.003 858.722,466.241 858.722,469.003 C858.722,471.764 856.484,474.003 853.722,474.003 z" fill-opacity="0" stroke="#000000" stroke-width="1"/>
    </g>
    <g>
      <path d="M853.722,546.901 C850.961,546.901 848.722,544.662 848.722,541.901 C848.722,539.14 850.961,536.901 853.722,536.901 C856.484,536.901 858.722,539.14 858.722,541.901 C858.722,544.662 856.484,546.901 853.722,546.901 z" fill="#FFFFFF"/>
      <path d="M853.722,546.901 C850.961,546.901 848.722,544.662 848.722,541.901 C848.722,539.14 850.961,536.901 853.722,536.901 C856.484,536.901 858.722,539.14 858.722,541.901 C858.722,544.662 856.484,546.901 853.722,546.901 z" fill-opacity="0" stroke="#000000" stroke-width="1"/>
    </g>
  </g>
</svg>
